<svg version="1.1" viewBox="0.0 0.0 623.4146981627297 563.6351706036745" fill="none" stroke="none" stroke-linecap="square" stroke-miterlimit="10" xmlns:xlink="http://www.w3.org/1999/xlink" xmlns="http://www.w3.org/2000/svg"><clipPath id="p.0"><path d="m0 0l623.4147 0l0 563.6352l-623.4147 0l0 -563.6352z" clip-rule="nonzero"/></clipPath><g clip-path="url(#p.0)"><path fill="#000000" fill-opacity="0.0" d="m0 0l623.4147 0l0 563.6352l-623.4147 0z" fill-rule="evenodd"/><g filter="url(#shadowFilter-p.1)"><use xlink:href="#p.1" transform="matrix(1.0 0.0 0.0 1.0 0.0 2.0)"/></g><defs><filter id="shadowFilter-p.1" filterUnits="userSpaceOnUse"><feGaussianBlur in="SourceAlpha" stdDeviation="10.5" result="blur"/><feComponentTransfer in="blur" color-interpolation-filters="sRGB"><feFuncR type="linear" slope="0" intercept="0.0"/><feFuncG type="linear" slope="0" intercept="0.91764706"/><feFuncB type="linear" slope="0" intercept="0.91764706"/><feFuncA type="linear" slope="0.8" intercept="0"/></feComponentTransfer></filter></defs><g id="p.1"><path fill="#000000" fill-opacity="0.0" d="m31.517061 98.69554l0 0c0 -0.0025863647 0.0020923615 -0.004676819 0.0046749115 -0.004676819l561.1922 0.004676819c0.0012207031 0 0.0024414062 4.8828125E-4 0.0032958984 0.0013656616c8.544922E-4 8.773804E-4 0.0013427734 0.002067566 0.0013427734 0.0033111572l-0.004638672 437.0662c0 0.0025634766 -0.0021362305 0.004638672 -0.004699707 0.004638672l-561.19214 -0.004638672l0 0c-0.0025844574 0 -0.004676819 -0.0021362305 -0.004676819 -0.004699707z" fill-rule="evenodd"/><path stroke="#00eaea" stroke-width="24.0" stroke-linejoin="round" stroke-linecap="butt" d="m31.517061 98.69554l0 0c0 -0.0025863647 0.0020923615 -0.004676819 0.0046749115 -0.004676819l561.1922 0.004676819c0.0012207031 0 0.0024414062 4.8828125E-4 0.0032958984 0.0013656616c8.544922E-4 8.773804E-4 0.0013427734 0.002067566 0.0013427734 0.0033111572l-0.004638672 437.0662c0 0.0025634766 -0.0021362305 0.004638672 -0.004699707 0.004638672l-561.19214 -0.004638672l0 0c-0.0025844574 0 -0.004676819 -0.0021362305 -0.004676819 -0.004699707z" fill-rule="evenodd"/></g><g filter="url(#shadowFilter-p.2)"><use xlink:href="#p.2" transform="matrix(1.0 0.0 0.0 1.0 0.0 2.0)"/></g><defs><filter id="shadowFilter-p.2" filterUnits="userSpaceOnUse"><feGaussianBlur in="SourceAlpha" stdDeviation="10.5" result="blur"/><feComponentTransfer in="blur" color-interpolation-filters="sRGB"><feFuncR type="linear" slope="0" intercept="0.0"/><feFuncG type="linear" slope="0" intercept="0.91764706"/><feFuncB type="linear" slope="0" intercept="0.91764706"/><feFuncA type="linear" slope="0.8" intercept="0"/></feComponentTransfer></filter></defs><g id="p.2"><path fill="#000000" fill-opacity="0.0" d="m489.34122 305.45407l-354.4252 0l0 0c-27.419632 0 -53.716217 -10.892395 -73.10483 -30.281006c-19.388603 -19.38861 -30.281008 -45.685196 -30.281008 -73.10483l0 -103.385826c0 -0.0025787354 0.0020942688 -0.004676819 0.004676819 -0.004676819l561.1922 0.004676819l0 0c0.0025634766 0 0.004638672 0.0020980835 0.004638672 0.004676819l-0.004638672 103.38115l0 0c0 57.09842 -46.287415 103.38583 -103.38583 103.38583z" fill-rule="evenodd"/><path stroke="#00eaea" stroke-width="24.0" stroke-linejoin="round" stroke-linecap="butt" d="m489.34122 305.45407l-354.4252 0l0 0c-27.419632 0 -53.716217 -10.892395 -73.10483 -30.281006c-19.388603 -19.38861 -30.281008 -45.685196 -30.281008 -73.10483l0 -103.385826c0 -0.0025787354 0.0020942688 -0.004676819 0.004676819 -0.004676819l561.1922 0.004676819l0 0c0.0025634766 0 0.004638672 0.0020980835 0.004638672 0.004676819l-0.004638672 103.38115l0 0c0 57.09842 -46.287415 103.38583 -103.38583 103.38583z" fill-rule="evenodd"/></g><g filter="url(#shadowFilter-p.3)"><use xlink:href="#p.3" transform="matrix(1.0 0.0 0.0 1.0 0.0 2.0)"/></g><defs><filter id="shadowFilter-p.3" filterUnits="userSpaceOnUse"><feGaussianBlur in="SourceAlpha" stdDeviation="10.5" result="blur"/><feComponentTransfer in="blur" color-interpolation-filters="sRGB"><feFuncR type="linear" slope="0" intercept="0.0"/><feFuncG type="linear" slope="0" intercept="0.91764706"/><feFuncB type="linear" slope="0" intercept="0.91764706"/><feFuncA type="linear" slope="0.8" intercept="0"/></feComponentTransfer></filter></defs><g id="p.3"><path fill="#00eaea" d="m285.24698 335.43677l0 -57.546417l0 0c0 -7.538727 6.331604 -13.650085 14.142029 -13.650085c7.8104553 0 14.142059 6.1113586 14.142059 13.650085l0 57.546417l0 0c0 7.5387573 -6.331604 13.650116 -14.142059 13.650116c-7.810425 0 -14.142029 -6.1113586 -14.142029 -13.650116z" fill-rule="evenodd"/></g><g filter="url(#shadowFilter-p.4)"><use xlink:href="#p.4" transform="matrix(1.0 0.0 0.0 1.0 0.0 2.0)"/></g><defs><filter id="shadowFilter-p.4" filterUnits="userSpaceOnUse"><feGaussianBlur in="SourceAlpha" stdDeviation="10.5" result="blur"/><feComponentTransfer in="blur" color-interpolation-filters="sRGB"><feFuncR type="linear" slope="0" intercept="0.0"/><feFuncG type="linear" slope="0" intercept="0.91764706"/><feFuncB type="linear" slope="0" intercept="0.91764706"/><feFuncA type="linear" slope="0.8" intercept="0"/></feComponentTransfer></filter></defs><g id="p.4"><path fill="#00eaea" d="m211.51706 110.79265l0 0c0 -36.062935 19.297867 -69.367836 50.582886 -87.297615c31.285004 -17.92978 69.77191 -17.741953 100.88049 0.49232292c31.108582 18.234276 50.080566 51.725945 49.72867 87.78716l-26.645233 -0.26007843l0 0c0.258667 -26.51081 -13.688019 -51.132584 -36.55658 -64.53771c-22.86853 -13.405125 -51.16101 -13.543201 -74.15924 -0.3619156c-22.998245 13.181286 -37.18448 37.665756 -37.18448 64.17783z" fill-rule="evenodd"/><path stroke="#00eaea" stroke-width="1.0" stroke-linejoin="round" stroke-linecap="butt" d="m211.51706 110.79265l0 0c0 -36.062935 19.297867 -69.367836 50.582886 -87.297615c31.285004 -17.92978 69.77191 -17.741953 100.88049 0.49232292c31.108582 18.234276 50.080566 51.725945 49.72867 87.78716l-26.645233 -0.26007843l0 0c0.258667 -26.51081 -13.688019 -51.132584 -36.55658 -64.53771c-22.86853 -13.405125 -51.16101 -13.543201 -74.15924 -0.3619156c-22.998245 13.181286 -37.18448 37.665756 -37.18448 64.17783z" fill-rule="evenodd"/></g><g filter="url(#shadowFilter-p.5)"><use xlink:href="#p.5" transform="matrix(1.0 0.0 0.0 1.0 0.0 2.0)"/></g><defs><filter id="shadowFilter-p.5" filterUnits="userSpaceOnUse"><feGaussianBlur in="SourceAlpha" stdDeviation="10.5" result="blur"/><feComponentTransfer in="blur" color-interpolation-filters="sRGB"><feFuncR type="linear" slope="0" intercept="0.0"/><feFuncG type="linear" slope="0" intercept="0.91764706"/><feFuncB type="linear" slope="0" intercept="0.91764706"/><feFuncA type="linear" slope="0.8" intercept="0"/></feComponentTransfer></filter></defs><g id="p.5"><path fill="#000000" fill-opacity="0.0" d="m31.517061 471.16797l561.19684 0" fill-rule="evenodd"/><path stroke="#00eaea" stroke-width="24.0" stroke-linejoin="round" stroke-linecap="butt" d="m31.517061 471.16797l561.19684 0" fill-rule="evenodd"/></g></g></svg>